<svg width="126" height="42" viewBox="0 0 126 42" fill="none" xmlns="http://www.w3.org/2000/svg">
<path d="M0 0V42H126V0H0ZM123.454 39.5544H2.52326V2.46541H123.454V39.5544ZM20.8165 28.1815C22.3256 28.1761 23.5066 27.9659 24.3631 27.5472C25.2178 27.1303 25.913 26.5031 26.4544 25.664C26.9921 24.8248 27.259 23.8958 27.2553 22.8787C27.2516 21.8167 26.9865 20.9039 26.4581 20.1294C25.9316 19.3549 25.0991 18.7116 23.9608 18.1995C24.6357 17.7053 25.1251 17.1752 25.4236 16.611C25.7221 16.0503 25.8704 15.4214 25.8667 14.735C25.863 13.6765 25.5293 12.7583 24.8655 11.9802C24.2018 11.204 23.3101 10.6721 22.1884 10.3899C21.4005 10.1779 20.1546 10.0773 18.4508 10.0827L15.5122 10.0934L15.5771 28.1995L20.8165 28.1815ZM23.7643 22.7673C23.768 23.4573 23.5121 23.9838 22.9986 24.345C22.485 24.708 21.4913 24.8949 20.0137 24.8985L19.1219 24.9021L19.1052 20.2606H19.845C21.2447 20.2534 22.2477 20.4744 22.8521 20.9254C23.4565 21.3747 23.7606 21.9892 23.7624 22.7673H23.7643ZM20.0007 13.3621C20.8146 13.3585 21.4246 13.5256 21.825 13.8562C22.2255 14.1869 22.4276 14.6361 22.4294 15.2022C22.4313 15.8095 22.2218 16.2893 21.8028 16.6433C21.3838 16.9991 20.7404 17.177 19.8728 17.1806L19.0941 17.1842L19.0811 13.3657L19.9989 13.3621H20.0007ZM29.8583 28.1509L29.8101 14.7583L32.7839 14.7475L32.7894 16.4349C33.1083 15.7682 33.5329 15.2615 34.0668 14.9164C34.5989 14.5696 35.1829 14.3953 35.817 14.3935C36.2638 14.3935 36.7366 14.5031 37.226 14.7314L37.1908 17.7592C36.3843 17.186 35.4833 17.2704 35.1533 17.3351C34.6379 17.4358 34.078 17.8401 33.785 18.3432C33.3531 19.0854 33.2733 20.1977 33.2807 22.0719V28.1384L29.8583 28.1509ZM43.3256 14.7116L43.3738 28.1042L39.9087 28.1168L39.8605 14.7242L43.3256 14.7134V14.7116ZM40.0329 12.478C39.5972 12.0485 39.3785 11.5238 39.3748 10.9075C39.3729 10.3199 39.5843 9.81312 40.0144 9.39263C40.4427 8.97394 40.9636 8.7619 41.5699 8.76011C42.1761 8.75831 42.699 8.96855 43.1365 9.39623C43.5703 9.82031 43.7909 10.336 43.7928 10.9434C43.7947 11.5436 43.5814 12.0557 43.1532 12.4798C42.7249 12.9039 42.2076 13.1159 41.6107 13.1177C40.9933 13.1195 40.4649 12.9057 40.0311 12.4798L40.0329 12.478ZM53.1424 28.4169C54.4902 28.4133 55.7194 28.0988 56.8355 27.4771C57.9498 26.8518 58.8304 25.9892 59.4737 24.8877C60.1189 23.7862 60.4378 22.602 60.4341 21.3405C60.4285 20.0845 60.1022 18.9164 59.4571 17.8347C58.81 16.7529 57.9108 15.8976 56.7614 15.2722C55.6119 14.6433 54.3846 14.3324 53.0794 14.336C51.2754 14.3414 49.6829 14.9524 48.298 16.1725C46.7221 17.5741 45.9341 19.319 45.9416 21.4124C45.949 23.3657 46.6553 25.0243 48.0607 26.3845C49.4678 27.7466 51.1605 28.4241 53.1424 28.4169ZM50.4616 18.5966C51.1753 17.8688 52.0708 17.5022 53.148 17.4987C54.2511 17.4951 55.1577 17.8509 55.8678 18.566C56.5778 19.283 56.9375 20.212 56.9412 21.3621C56.9449 22.5121 56.5871 23.4519 55.8696 24.1851C55.1521 24.9164 54.2492 25.2848 53.1647 25.2884C52.0782 25.292 51.179 24.9362 50.4708 24.2138C49.7589 23.4951 49.4011 22.5517 49.3974 21.3854C49.3937 20.2516 49.7496 19.3226 50.4634 18.593L50.4616 18.5966ZM69.2702 28.018C70.1174 28.0144 70.8738 27.8832 71.5431 27.6244C72.2106 27.3621 72.8502 26.9362 73.4583 26.3432C73.462 27.4268 73.347 28.1887 73.1153 28.6325C72.8854 29.0782 72.4868 29.4411 71.9213 29.7215C71.3559 30.0018 70.605 30.1438 69.6725 30.1456C68.9457 30.1491 68.3154 30.0539 67.7814 29.8616C67.2456 29.673 66.8099 29.3872 66.4706 29.0117L62.6459 29.0243C62.9555 29.9317 63.4283 30.7044 64.066 31.3405C64.7057 31.973 65.4843 32.451 66.4095 32.7781C67.3327 33.1033 68.4711 33.2633 69.8245 33.2579C72.3663 33.2489 74.2648 32.5211 75.5199 31.0728C76.458 30.0036 76.9215 28.336 76.9141 26.0701L76.8733 14.5966L73.4194 14.6074L73.4249 16.0845C72.7093 15.4376 71.9992 14.9757 71.2891 14.6936C70.5828 14.4151 69.8301 14.2767 69.0347 14.2785C67.3309 14.2839 65.8681 14.8697 64.6482 16.0395C63.2966 17.3351 62.6273 19.044 62.6329 21.168C62.6403 23.1536 63.2855 24.7925 64.5685 26.0845C65.8514 27.3783 67.4199 28.0198 69.2739 28.0126L69.2702 28.018ZM67.1288 18.4906C67.837 17.779 68.7399 17.4214 69.8319 17.4178C70.9406 17.4142 71.8472 17.7592 72.5517 18.4546C73.2581 19.15 73.614 20.0539 73.6159 21.1698C73.6196 22.3019 73.2747 23.2183 72.5795 23.9191C71.8824 24.6181 70.9962 24.9721 69.9209 24.9739C68.8215 24.9775 67.9038 24.6217 67.1752 23.912C66.4447 23.2022 66.0758 22.2857 66.072 21.1698C66.0683 20.0952 66.4206 19.2022 67.1288 18.4888V18.4906ZM86.6475 28.3037C88.0435 28.2983 89.2505 28.0539 90.2646 27.5705C91.2787 27.0889 92.1501 26.345 92.8731 25.3405L89.9476 24.0216C89.0169 24.9039 87.9082 25.3459 86.6104 25.3513C85.5258 25.3549 84.6341 25.0764 83.9333 24.5157C83.2325 23.9569 82.8005 23.2004 82.6373 22.248L93.776 22.2102L93.7871 21.5723C93.7797 19.3567 93.0901 17.5741 91.7218 16.23C90.3536 14.8841 88.583 14.2156 86.4046 14.2228C84.356 14.23 82.6559 14.9093 81.3025 16.2659C79.9472 17.619 79.2761 19.3172 79.2835 21.3621C79.2909 23.3567 79.9769 25.0153 81.3451 26.3342C82.7115 27.655 84.482 28.3127 86.6475 28.3055V28.3037ZM84.0482 17.8616C84.775 17.3333 85.6204 17.0692 86.5882 17.0656C87.4799 17.062 88.2623 17.292 88.939 17.761C89.6138 18.2246 90.0681 18.832 90.2998 19.5777L82.7819 19.6029C83.1694 18.7727 83.5903 18.1941 84.0501 17.8634L84.0482 17.8616ZM103.178 28.248C104.524 28.2444 105.755 27.9299 106.871 27.3082C107.985 26.6828 108.866 25.8203 109.509 24.7188C110.154 23.6173 110.473 22.4331 110.469 21.1716C110.464 19.9155 110.137 18.7475 109.492 17.6658C108.843 16.584 107.946 15.7287 106.797 15.1033C105.647 14.4744 104.42 14.1635 103.116 14.1671C101.312 14.1725 99.718 14.7835 98.3331 16.0036C96.7554 17.4052 95.9711 19.15 95.9786 21.2435C95.986 23.1968 96.6905 24.8553 98.0976 26.2156C99.503 27.5777 101.196 28.2552 103.178 28.248ZM100.497 18.4277C101.21 17.6981 102.106 17.3333 103.183 17.3297C104.286 17.3261 105.193 17.6819 105.903 18.3971C106.613 19.1141 106.971 20.0431 106.974 21.1932C106.978 22.3414 106.62 23.2812 105.905 24.0162C105.187 24.7493 104.283 25.1159 103.198 25.1195C102.112 25.1231 101.214 24.7673 100.504 24.0449C99.7922 23.3261 99.4344 22.3827 99.4307 21.2165C99.4269 20.0845 99.7829 19.1536 100.497 18.4259V18.4277Z" fill="#444444"/>
</svg>
